PathFileType	4	(X/Y/Z)	C:/Users/beibeiliu/ov580/test_trc/User3\sequence.27_training_dense_left.trc
DataRate	CameraRate	NumFrames	NumMarkers	Units	OrigDataRate	OrigDataStartFrame	OrigNumFrames
120	120	23	19	mm	120	242	276
Frame#	Time	ThumbCMC			ThumbMCP			ThumbIP			ThumbTip			IndexMCP			IndexPIP			IndexTip			MiddleMCP			MiddlePIP			MiddleTip			RingMCP			RingPIP			RingTip			PinkyMCP			PinkyPIP			PinkyTip			BackHand1			BackHand2			BackHand3	
		X0	Y0	Z0	X1	Y1	Z1	X2	Y2	Z2	X3	Y3	Z3	X4	Y4	Z4	X5	Y5	Z5	X6	Y6	Z6	X7	Y7	Z7	X8	Y8	Z8	X9	Y9	Z9	X10	Y10	Z10	X11	Y11	Z11	X12	Y12	Z12	X13	Y13	Z13	X14	Y14	Z14	X15	Y15	Z15	X16	Y16	Z16	X17	Y17	Z17	X18	Y18	Z18	
241	2.00833	-166.401	33.5248	34.464	-161.688	7.72916	6.11621	-175.022	-6.90422	-22.903	-197.544	-11.2563	-29.6347	-175.591	35.6215	-42.8862	-174.386	19.5389	-63.3513	-177.127	0.959651	-80.7179	-195.155	34.5826	-48.9744	-192.212	15.143	-69.3805	-190.719	-10.4347	-88.8638	-212.058	18.2755	-34.712	-208.807	-12.6136	-21.6905	-197.41	-1.68833	8.05646	-229.292	11.0355	-18.2608	-215.674	-8.23347	-1.52866	-210.657	7.63833	21.8218	-218.201	61.5196	7.79071	-219.5	64.4279	38.4782	-186.537	64.4735	18.9952	
242	2.01667	-167.721	23.7728	24.512	-169.97	1.93368	-3.55439	-180.082	-14.8355	-29.458	-206.24	-20.4334	-42.1387	-181.631	28.5287	-53.4229	-183.56	13.693	-74.1891	-186.242	-3.03872	-92.946	-203.661	27.4024	-57.1688	-198.696	9.71501	-79.381	-200.301	-11.2152	-98.4152	-222.177	10.5664	-40.7224	-210.822	-18.5163	-31.2455	-204.326	-9.86852	1.93213	-232.997	3.32145	-25.1566	-218.492	-15.7058	-10.6819	-213.433	0.922487	16.6007	-219.347	52.256	1.59593	-221.096	54.9306	34.0055	-188.052	57.238	13.2454	
243	2.025	-172.49	15.9481	17.8126	-171.74	-7.48238	-10.3745	-187.907	-20.078	-35.2989	-210.838	-26.2311	-46.5701	-191.168	24.1273	-58.1927	-193.033	10.8816	-79.4531	-193.776	-4.39595	-101.963	-208.985	22.2911	-62.7105	-210.149	7.22702	-84.8371	-211.407	-14.1785	-107.668	-227.441	6.40219	-43.9343	-218.884	-23.7282	-42.0965	-209.412	-18.1631	-5.69957	-237.806	-4.4077	-29.8344	-225.751	-24.0517	-15.5267	-216.686	-8.73614	8.32246	-224.013	43.7807	-5.72253	-222.848	48.2289	27.5972	-195.986	49.1201	10.219	
244	2.03333	-177.507	9.12288	10.6511	-173.733	-12.9626	-16.5114	-189.858	-24.859	-40.2449	-217.42	-30.6428	-53.6749	-196.138	22.0407	-60.3989	-200.136	11.4236	-83.815	-199.357	-2.96321	-107.643	-215.758	20.451	-66.8471	-219.609	5.91007	-88.2056	-219.479	-12.1305	-114.062	-230.803	1.24021	-50.3025	-223.646	-30.4387	-44.7558	-215.49	-26.8423	-12.2711	-244.72	-7.84835	-32.7853	-232.896	-30.7007	-22.0883	-219.613	-18.1947	4.08925	-232.678	37.2384	-4.0813	-228.709	41.2895	23.4622	-194.313	41.5129	8.00681	
245	2.04167	-178.385	4.74119	9.32828	-179.21	-16.9496	-25.7945	-193.015	-29.4776	-46.3586	-218.213	-34.7525	-54.6026	-203.605	19.2859	-65.2644	-206.247	9.86295	-89.4666	-207.964	-0.745847	-113.381	-220.955	19.2523	-65.9106	-225.822	6.45608	-91.1126	-228.559	-9.17923	-118.875	-235.234	-2.12037	-54.4941	-231.197	-33.7208	-49.7759	-221.192	-34.2102	-20.0844	-251.546	-12.3509	-34.3049	-235.058	-34.3435	-27.6541	-221.873	-24.9496	-0.295261	-235.907	32.3795	-8.7351	-231.333	33.9202	23.2383	-199.195	37.2199	4.51608	
246	2.05	-179.834	-0.826626	3.1492	-184.017	-19.7419	-29.4389	-197.466	-31.4238	-48.4221	-222.416	-37.3418	-58.4204	-208.897	18.216	-68.4512	-211.925	11.8618	-93.9183	-219	1.80674	-115.201	-226.582	18.609	-69.1873	-230.318	7.90728	-97.0293	-230.535	-2.0417	-122.708	-244.972	-3.77269	-54.6706	-233.037	-35.6361	-56.0544	-223.663	-36.7563	-23.6882	-251.841	-16.8328	-38.6509	-235.716	-38.0238	-29.0584	-226.01	-29.885	-6.70825	-236.709	29.1889	-10.7295	-233.264	27.8216	24.5877	-203.896	32.21	-0.668576	
247	2.05833	-185.468	-4.79757	-0.109889	-188.111	-22.6488	-29.1729	-203.637	-31.5266	-57.0561	-225.233	-37.3632	-64.3828	-208.391	21.8066	-69.3109	-214.566	17.6052	-93.838	-219.694	12.444	-117.64	-230.113	20.7887	-70.7583	-232.767	15.4179	-96.8387	-237.774	7.24629	-129.225	-247.031	-3.02737	-57.9379	-241.957	-35.6589	-60.4319	-226.72	-38.8531	-29.6162	-257.735	-17.5919	-41.0307	-239.92	-39.1955	-35.9382	-225.077	-32.6902	-11.6395	-243.587	24.8182	-9.85015	-236.672	23.1512	21.7885	-207.863	27.7711	3.66164	
248	2.06667	-185.456	-9.23157	-3.90126	-188.681	-23.4909	-35.1652	-203.355	-31.4429	-60.7234	-229.998	-34.5803	-71.5184	-212.864	23.8335	-66.1884	-216.346	24.7348	-94.1507	-225.122	22.8704	-117.816	-234.954	24.9596	-69.4088	-233.871	24.919	-99.8847	-237.718	22.2955	-127.214	-247.212	-1.01821	-61.1844	-239.911	-31.7634	-68.6928	-226.633	-40.1407	-40.3891	-259.715	-16.1153	-45.3217	-243.618	-39.5162	-42.0295	-229.45	-34.1165	-13.3665	-242.762	21.5614	-11.3081	-237.73	18.1885	21.3973	-209.612	21.1816	2.37291	
249	2.075	-187.653	-11.562	-7.3462	-189.662	-22.7265	-40.2713	-206.432	-26.7112	-69.157	-229.122	-31.2095	-78.663	-214.17	29.2921	-67.953	-216.668	31.4617	-90.1759	-221.741	33.8374	-115.006	-233.451	28.8705	-67.3543	-236.915	31.96	-95.3351	-241.379	34.0847	-126.911	-248.601	1.84775	-63.8173	-241.221	-29.1741	-72.7846	-227.323	-36.0096	-41.8286	-259.843	-14.0405	-51.9374	-247.33	-39.077	-49.9295	-233.147	-38.0185	-21.7023	-248.379	19.9761	-9.14659	-239.926	9.53528	20.4516	-208.766	19.0668	4.22348	
250	2.08333	-192.546	-14.1533	-6.75625	-188.833	-21.4058	-43.0599	-204.905	-21.0228	-70.7128	-225.167	-23.5466	-80.5613	-208.989	34.6283	-62.023	-217.356	39.6128	-84.583	-222.854	47.1982	-113.128	-233.601	36.126	-67.6804	-232.127	41.5918	-93.0622	-236.803	47.0977	-120.778	-244.923	7.4628	-64.5392	-243.156	-21.5296	-77.1187	-228.825	-33.998	-50.7424	-259.105	-8.58703	-53.97	-246.699	-34.6507	-57.1778	-234.656	-38.2353	-30.9216	-244.246	17.8507	-7.44309	-241.572	3.38385	20.7059	-212.542	13.3044	5.73304	
251	2.09167	-188.316	-18.4205	-4.06039	-186.012	-20.2311	-40.0049	-200.515	-15.1817	-69.3285	-224.117	-12.7558	-80.3433	-208.797	39.0522	-56.2778	-212.201	48.2356	-79.417	-215.442	56.6783	-101.15	-226.99	41.2375	-60.4847	-229.177	50.0364	-84.4642	-229.104	60.3913	-113.393	-242.866	14.3022	-66.1488	-236.218	-11.2363	-81.2805	-227.504	-28.8893	-52.8062	-256.444	-2.54421	-54.0655	-244.926	-27.098	-64.4038	-231.967	-34.4134	-34.808	-243.294	17.414	-6.67762	-243.639	-0.770959	22.3218	-215.358	11.9212	8.88838	
252	2.1	-190.899	-20.0532	-0.410983	-183.265	-13.852	-39.4466	-192.996	-8.93353	-66.0221	-215.968	-6.15274	-81.6696	-202.795	41.7932	-44.3734	-208.542	55.0086	-70.868	-210.994	67.5828	-91.586	-224.548	46.7532	-53.3427	-221.079	57.858	-75.1206	-219.792	73.6368	-105.87	-237.589	20.2457	-60.5681	-231.025	-0.637132	-79.8571	-224.898	-24.43	-55.66	-255.044	0.957627	-57.6247	-236.659	-19.9398	-64.2823	-228.628	-29.0442	-38.0386	-242.603	13.3579	-2.10208	-244.576	-4.64145	23.3387	-213.202	9.02077	14.3351	
253	2.10833	-184.86	-20.8697	4.1366	-181.353	-12.4267	-32.1391	-186.647	-2.29918	-62.5538	-207.549	1.87988	-80.7264	-203.407	46.9647	-37.5114	-199.711	60.3356	-56.356	-200.352	75.5275	-76.4192	-218.927	51.2471	-45.4192	-214.879	64.1613	-63.7911	-212.779	80.1811	-91.7543	-232.682	24.5901	-58.5592	-224.67	3.34215	-75.8075	-216.358	-19.1201	-49.4384	-248.112	6.75839	-55.2576	-230.248	-14.1161	-63.7289	-224.986	-28.5585	-39.738	-243.268	15.5219	-0.479358	-246.64	-6.0109	22.3135	-210.22	7.36124	17.716	
254	2.11667	-185.926	-15.151	5.59935	-175.043	-8.03547	-29.5254	-180.775	1.80496	-56.4132	-203.179	8.99703	-75.6529	-195.323	50.4055	-26.9985	-193.312	66.9601	-47.4796	-194.406	83.608	-68.8402	-216.768	51.9647	-35.0374	-210.261	69.4135	-55.7674	-205.103	91.3071	-82.4689	-226.961	29.4069	-50.6625	-212.255	8.30416	-71.081	-209.435	-14.4079	-46.3636	-242.975	10.1566	-52.6695	-223.138	-5.90092	-62.7156	-217.094	-21.4088	-36.1682	-239.385	15.5291	3.16063	-243.157	-9.39386	22.7244	-210.406	5.35827	24.1956	
255	2.125	-184.517	-15.6822	8.89271	-172.91	-7.47685	-23.0647	-175.152	5.24042	-51.9411	-197.043	13.4093	-70.2146	-191.793	51.9949	-19.2309	-190.653	70.2589	-41.3801	-190.578	84.6798	-57.8152	-206.596	57.0259	-29.7366	-205.604	71.0214	-49.1452	-200.029	93.0109	-72.4153	-218.475	33.4565	-44.6442	-207.708	11.9147	-67.0692	-200.722	-11.2647	-42.5056	-233.692	16.0092	-50.8817	-219.792	-4.17873	-61.2387	-214.413	-20.2966	-33.0057	-235.787	15.2024	5.87975	-241.096	-9.70345	25.1747	-211.641	4.18988	28.158	
256	2.13333	-179.212	-18.4982	14.3623	-167.969	-6.72212	-20.3928	-173.699	8.36565	-46.1767	-189.76	18.4644	-68.4769	-184.615	52.0186	-12.6315	-180.634	73.917	-34.6414	-182.385	88.7692	-53.1124	-206.571	56.1423	-25.3983	-199.724	74.4723	-43.5566	-192.526	94.9174	-64.1028	-211.297	36.4229	-43.4341	-201.282	17.8901	-63.8795	-196.931	-7.368	-42.2425	-229.615	18.5204	-46.5162	-209.461	2.20773	-57.2319	-207.378	-16.3088	-33.4581	-232.897	16.0755	7.43608	-239.471	-8.48958	27.7643	-209.907	4.49126	31.0605	
257	2.14167	-175.044	-20.8713	16.6636	-163.777	-6.51435	-17.8067	-167.862	6.3746	-41.8241	-183.349	17.3555	-62.6735	-178.784	55.7508	-9.57997	-178.258	72.5679	-30.4104	-176.278	86.8751	-46.5359	-195.348	59.7786	-18.9589	-192.063	78.5375	-41.6231	-182.059	97.7411	-59.3076	-208.912	38.2542	-35.1539	-196.755	23.0364	-60.9509	-189.53	-4.11055	-42.6534	-223.889	20.5328	-42.6886	-205.878	2.38656	-53.8724	-205.122	-18.2167	-31.6532	-227.356	17.5367	9.9595	-237.492	-8.37411	30.0366	-204.044	7.05385	30.2246	
258	2.15	-174.846	-20.5592	18.8295	-163.448	-11.6633	-11.9427	-158.576	7.29339	-41.8427	-174.167	18.1756	-59.5895	-175.378	52.3467	-6.36683	-172.189	70.4785	-24.2591	-168.678	86.424	-41.2621	-194.385	58.2729	-16.8761	-182.673	78.6266	-35.9061	-177.589	98.1783	-58.634	-201.789	39.3333	-35.2058	-187.492	22.9118	-57.6367	-187.518	-7.44633	-38.3145	-216.364	22.9533	-41.2286	-201.259	0.891358	-53.0565	-200.205	-15.1168	-31.974	-227.184	15.9909	13.5687	-232.304	-7.20109	31.6232	-201.556	4.01878	34.3081	
259	2.15833	-170.433	-19.8875	20.2554	-157.417	-10.1835	-10.8813	-156.258	8.26686	-38.1938	-166.941	16.9646	-60.1472	-172.875	50.3342	-4.91453	-162.853	68.7181	-20.0729	-159.899	84.9688	-38.7734	-188.485	57.1057	-15.2768	-179.66	73.5433	-32.4364	-166.58	95.9342	-57.1952	-198.947	36.9365	-36.0302	-185.079	22.4556	-56.2263	-179.903	-7.66882	-36.0667	-214.336	20.3152	-37.0657	-198.283	0.273415	-52.6418	-192.335	-16.0916	-27.3585	-226.804	14.4593	14.4794	-231.107	-9.7862	31.1129	-196.486	4.94165	38.7856	
260	2.16667	-169.694	-19.3893	22.904	-152.749	-9.6999	-7.25937	-149.956	4.81017	-34.3445	-160.999	11.7271	-55.8404	-170.376	50.3752	-8.49052	-164.204	63.5623	-24.784	-156.304	82.2223	-41.8684	-185.133	54.0138	-16.7772	-175.002	70.8547	-35.4129	-160.364	89.9982	-60.9961	-193.004	32.5731	-33.326	-176.164	18.2433	-55.6265	-174.767	-10.1627	-35.9119	-206.049	14.6431	-45.2183	-189.014	-2.16635	-52.524	-184.208	-19.8205	-23.4204	-224.041	11.3226	10.0096	-230.963	-11.7008	28.0616	-200.177	2.82575	35.0651	
261	2.175	-167.646	-18.5721	27.6759	-148.302	-9.07516	-4.65051	-146.107	4.37944	-34.9968	-155.128	7.94501	-57.521	-166.475	49.9326	-13.0008	-158.465	63.9068	-33.4106	-157.136	75.1865	-53.9896	-184.398	50.9011	-26.1707	-174.128	64.7718	-49.0571	-158.982	75.5901	-71.8762	-190.695	23.8043	-41.1032	-170.149	4.94335	-58.6601	-165.749	-15.7556	-32.4778	-200.606	4.34939	-46.3447	-179.068	-13.0698	-50.368	-177.733	-22.5986	-20.4418	-218.945	9.32621	1.65834	-229.675	-13.0445	21.2331	-196.986	5.88955	35.6542	
262	2.18333	-164.632	-11.6712	26.6538	-147.048	-5.91097	-5.80023	-138.05	-2.04016	-32.368	-148.252	-2.47502	-63.4489	-170.856	43.7221	-29.5237	-158.897	57.6826	-49.2277	-157.126	66.2696	-72.1479	-183.535	39.1647	-40.1956	-170.213	53.033	-63.6078	-153.124	59.9052	-91.0843	-182.619	10.6478	-52.2811	-158.227	-8.20014	-58.977	-155.531	-21.584	-30.387	-189.167	-12.3849	-55.3558	-164.964	-27.4196	-46.5131	-166.125	-31.5322	-20.05	-216.136	0.941725	-3.51216	-226.469	-21.7454	17.9139	-200.319	4.26136	24.3925	
263	2.19167	-159.904	-3.35108	24.4475	-137.363	-1.65144	-8.77622	-128.943	-3.91542	-38.3419	-137.447	-15.3689	-61.1644	-168.998	37.4251	-43.6645	-159.24	45.4935	-67.7773	-151.842	51.9667	-87.373	-179.681	24.9015	-56.326	-164.855	33.8458	-82.9465	-143.41	39.2397	-108.824	-171.943	-2.26915	-57.9718	-146.898	-19.5155	-60.6751	-144.764	-26.091	-26.7548	-176.341	-26.8246	-54.6104	-150.616	-33.8905	-43.008	-156.45	-35.7122	-13.843	-210.829	-12.0026	-17.3292	-218.508	-28.3156	11.2937	-197.351	8.13608	12.4996	
